<svg width="415" height="414" viewBox="0 0 415 414" fill="none" xmlns="http://www.w3.org/2000/svg">
<mask id="mask0_1045_10059" style="mask-type:luminance" maskUnits="userSpaceOnUse" x="94" y="183" width="231" height="231">
<path d="M94.168 183.932L324.087 183.932V413.85H94.168L94.168 183.932Z" fill="white"/>
</mask>
<g mask="url(#mask0_1045_10059)">
<path d="M323.736 280.614C323.736 280.608 323.736 280.603 323.734 280.597C323.719 276.823 322.555 272.853 320.538 268.775C320.52 268.724 320.526 268.67 320.502 268.619C320.466 268.537 320.398 268.482 320.353 268.409C310.017 248.011 278.195 225.003 257.755 210.231C251.435 205.664 245.977 201.721 242.901 199.089C227.297 186.425 219.23 184.107 208.962 184.107C198.693 184.107 190.626 186.425 174.984 199.12C171.945 201.721 166.485 205.664 160.166 210.231C139.727 225.003 107.904 248.011 97.5686 268.409C97.5213 268.482 97.4557 268.537 97.4174 268.619C97.3937 268.67 97.3992 268.722 97.381 268.775C95.366 272.851 94.2018 276.823 94.1872 280.597C94.1872 280.603 94.1872 280.608 94.1854 280.614C94.1872 280.632 94.1836 280.648 94.1836 280.667L94.1836 374.989C94.1836 380.374 96.1858 384.114 100.675 387.115C113.734 395.849 147.442 410.08 186.777 413.492C186.88 413.501 186.984 413.507 187.088 413.507C187.995 413.507 188.881 413.164 189.557 412.545C190.311 411.854 190.743 410.872 190.743 409.852V408.198H227.18V409.852C227.18 410.872 227.612 411.854 228.366 412.545C229.042 413.166 229.928 413.507 230.835 413.507C230.939 413.507 231.043 413.501 231.146 413.492C270.481 410.082 304.187 395.849 317.248 387.115C321.737 384.114 323.74 380.374 323.74 374.989V280.667C323.74 280.648 323.736 280.632 323.736 280.614ZM186.155 344.432C185.541 344.432 184.977 344.152 184.683 343.7C183.151 341.331 183.056 338.741 184.41 336.206C184.696 335.669 185.315 335.323 185.988 335.323H231.935C232.608 335.323 233.225 335.669 233.513 336.205C234.867 338.741 234.772 341.33 233.24 343.698C232.947 344.152 232.382 344.432 231.768 344.432H186.155ZM97.8273 355.353C100.03 356.916 103.422 359.169 107.928 361.751C107.928 362.993 107.933 364.247 107.942 365.509C102.48 362.39 99.0079 359.885 97.8273 358.807L97.8273 355.353ZM111.575 363.781C127.141 372.139 153.043 382.617 187.094 384.41V388.05C153.252 386.23 126.77 375.59 111.603 367.528C111.59 366.271 111.581 365.023 111.575 363.781ZM231.768 348.076C233.633 348.076 235.328 347.18 236.299 345.678C238.562 342.182 238.715 338.209 236.729 334.49C235.801 332.756 233.967 331.679 231.935 331.679H185.988C183.958 331.679 182.122 332.756 181.196 334.49C179.21 338.209 179.363 342.182 181.626 345.678C182.595 347.18 184.29 348.076 186.155 348.076H187.099L187.094 380.762C152.372 378.9 126.438 367.909 111.572 359.663C111.624 342.612 112.386 328.36 112.399 328.136C112.453 327.13 111.683 326.272 110.679 326.217C109.691 326.117 108.815 326.931 108.76 327.935C108.749 328.154 108.044 341.348 107.941 357.577C102.559 354.381 99.1336 351.855 97.8273 350.842V283.551C104.191 286.429 115.908 291.166 132.443 295.575L132.443 348.076C132.443 349.083 133.259 349.898 134.265 349.898C135.27 349.898 136.087 349.083 136.087 348.076L136.087 296.519C154.927 301.278 179.471 305.451 209.005 306.173C228.173 305.705 245.23 303.773 259.999 301.177V338.511C259.999 339.519 260.816 340.333 261.821 340.333C262.827 340.333 263.643 339.519 263.643 338.511V300.512C278.94 297.637 291.633 294.083 301.454 290.785C301.62 296.448 301.995 310.788 301.877 320.728C301.866 321.734 302.671 322.559 303.677 322.572C303.684 322.572 303.692 322.572 303.699 322.572C304.694 322.572 305.508 321.772 305.521 320.772C305.648 310.008 305.204 294.15 305.064 289.539C311.595 287.229 316.64 285.116 320.096 283.553V350.845C319.012 351.685 316.487 353.558 312.581 356.001C312.531 355.411 312.499 355.057 312.497 355.037C312.398 354.035 311.52 353.323 310.505 353.403C309.505 353.502 308.773 354.392 308.871 355.394C308.875 355.431 308.968 356.398 309.092 358.111C294.795 366.455 267.79 378.785 230.826 380.766V348.076H231.768ZM99.9425 271.738C106.718 274.689 118.054 279.063 133.534 283.123C133.582 283.144 133.636 283.146 133.685 283.163C152.786 288.16 178.159 292.667 209.005 293.42C245.082 292.538 273.678 286.508 293.498 280.568C293.551 280.55 293.604 280.545 293.655 280.523C296.605 279.637 299.357 278.754 301.912 277.89C301.952 277.876 301.992 277.868 302.03 277.85C308.778 275.564 314.118 273.421 317.981 271.739C319.158 274.441 319.868 277.061 320.032 279.572C307.935 285.225 268.879 301.064 209.007 302.531C149.051 301.063 109.99 285.223 97.8911 279.57C98.0551 277.059 98.7656 274.44 99.9425 271.738ZM230.824 384.411C267.174 382.497 294.22 370.689 309.339 362.126C309.4 363.232 309.456 364.447 309.511 365.777C295.049 373.957 267.19 386.095 230.824 388.05V384.411ZM312.87 360.066C315.977 358.189 318.387 356.566 320.096 355.353V358.805C319.156 359.663 316.758 361.43 313.065 363.689C313.001 362.341 312.936 361.13 312.87 360.066ZM217.832 209.435C214.642 211.532 211.026 213.91 205.992 216.364C199.663 207.012 186.356 201.789 180.047 199.746C193.08 189.613 199.958 187.751 208.962 187.751C218.237 187.751 225.273 189.752 239.053 200.681C228.634 202.35 223.783 205.525 217.832 209.435ZM162.3 213.185C168.48 208.719 173.428 205.139 176.601 202.512C179.265 203.274 187.527 205.868 194.6 210.548C191.198 221.603 174.816 246.61 174.645 246.871C174.093 247.713 174.326 248.842 175.168 249.394C175.476 249.598 175.824 249.695 176.166 249.695C176.76 249.695 177.341 249.405 177.691 248.873C178.378 247.827 193.43 224.846 197.686 212.8C199.266 214.079 200.708 215.486 201.935 217.014C201.663 233.435 192.862 250.5 192.772 250.673C192.306 251.566 192.652 252.666 193.543 253.133C193.813 253.271 194.101 253.339 194.387 253.339C195.042 253.339 195.676 252.983 196.003 252.36C196.365 251.666 204.334 236.24 205.464 219.967C205.649 219.996 205.835 220.037 206.023 220.037C206.544 220.037 207.07 219.922 207.559 219.681C212.839 217.078 216.555 214.635 219.834 212.481C222.848 210.501 225.484 208.777 228.676 207.358C232.522 213.95 240.006 223.106 240.347 223.522C240.706 223.961 241.229 224.189 241.755 224.189C242.162 224.189 242.571 224.054 242.909 223.775C243.686 223.137 243.801 221.99 243.164 221.212C243.083 221.115 235.916 212.345 232.125 206.03C235.025 205.081 238.489 204.337 242.95 203.826C246.104 206.305 250.427 209.433 255.622 213.185C275.316 227.417 305.834 249.476 316.365 268.466C312.772 270.025 307.898 271.98 301.815 274.071C299.935 271.951 295.397 266.505 292.351 262.809C291.709 262.031 290.561 261.921 289.785 262.561C289.009 263.202 288.898 264.348 289.538 265.126C290.246 265.986 295.165 271.949 298.077 275.327C296.575 275.815 295.001 276.309 293.374 276.802C287.49 271.495 271.313 259.959 270.594 259.447C269.774 258.863 268.635 259.054 268.052 259.874C267.469 260.693 267.661 261.83 268.479 262.415C268.637 262.528 282.483 272.399 289.226 278.027C281.755 280.164 273.126 282.274 263.419 284.11C261.156 271.699 241.877 246.162 239.556 243.123C238.946 242.324 237.802 242.172 237.002 242.781C236.202 243.391 236.049 244.535 236.66 245.335C242.805 253.381 258.203 275.228 259.834 284.768C245.157 287.368 228.155 289.31 209.002 289.778C179.314 289.053 154.786 284.81 136.118 280.031C136.484 263.417 143.03 252.586 143.097 252.477C143.626 251.622 143.363 250.5 142.507 249.97C141.654 249.44 140.53 249.702 140.002 250.557C139.707 251.03 133.079 261.932 132.496 279.08C118.376 275.265 107.942 271.242 101.553 268.467C112.087 249.478 142.607 227.417 162.3 213.185ZM97.8273 374.989V363.252C100.121 364.921 103.533 367.156 107.988 369.658C108.079 375.721 108.289 381.863 108.667 387.647C106.361 386.394 104.355 385.195 102.699 384.087C99.2393 381.773 97.8273 379.139 97.8273 374.989ZM112.459 389.616C112.032 383.905 111.787 377.771 111.666 371.658C127.451 379.926 153.44 389.935 187.092 391.701L187.09 409.865C156.034 407.17 128.642 397.669 112.459 389.616ZM190.743 348.076H207.14L207.14 404.554H190.743L190.743 348.076ZM210.783 404.554L210.783 348.076H227.18V404.554H210.783ZM230.824 409.852V391.699C267.019 389.802 294.336 378.368 309.642 369.822C309.769 374.863 309.782 380.926 309.52 387.507C294.136 395.924 264.649 406.93 230.824 409.852ZM315.224 384.089C314.616 384.495 313.945 384.92 313.246 385.348C313.451 378.702 313.384 372.668 313.225 367.752C316.108 366.021 318.401 364.484 320.096 363.252V374.989C320.096 379.139 318.684 381.773 315.224 384.089Z" fill="#025372"/>
<path d="M201.626 369.854H199.804C197.794 369.854 196.16 371.488 196.16 373.497V382.607C196.16 384.616 197.794 386.25 199.804 386.25H201.626C203.635 386.25 205.27 384.616 205.27 382.607V373.497C205.27 371.488 203.635 369.854 201.626 369.854ZM199.804 382.607V373.497H201.626L201.628 382.607H199.804Z" fill="#025372"/>
<path d="M218.036 369.854H216.214C214.205 369.854 212.57 371.488 212.57 373.497V382.607C212.57 384.616 214.205 386.25 216.214 386.25H218.036C220.045 386.25 221.68 384.616 221.68 382.607V373.497C221.68 371.488 220.045 369.854 218.036 369.854ZM216.214 382.607V373.497H218.036L218.038 382.607H216.214Z" fill="#025372"/>
<path d="M310.953 326.123C310.962 326.123 310.971 326.123 310.978 326.123C311.984 326.108 312.789 325.281 312.775 324.276C312.624 313.388 312.443 295.716 312.58 293.796C312.667 293.402 312.624 292.976 312.429 292.588C311.977 291.688 310.882 291.325 309.984 291.775C308.692 292.424 308.692 292.424 309.131 324.325C309.146 325.325 309.958 326.123 310.953 326.123Z" fill="#025372"/>
</g>
<mask id="mask1_1045_10059" style="mask-type:luminance" maskUnits="userSpaceOnUse" x="13" y="10" width="60" height="59">
<path d="M13.832 10.0117L72.5811 10.0117V68.7608H13.832L13.832 10.0117Z" fill="white"/>
</mask>
<g mask="url(#mask1_1045_10059)">
<path d="M63.2146 39.3807C63.2146 40.6939 63.0865 41.9945 62.8303 43.2825C62.5741 44.5705 62.1947 45.8211 61.6922 47.0344C61.1897 48.2476 60.5736 49.4002 59.844 50.4921C59.1144 51.584 58.2854 52.5942 57.3568 53.5228C56.4282 54.4514 55.418 55.2804 54.3261 56.01C53.2342 56.7396 52.0816 57.3557 50.8683 57.8582C49.6551 58.3608 48.4045 58.7401 47.1165 58.9963C45.8285 59.2525 44.5279 59.3806 43.2147 59.3806C41.9015 59.3806 40.6009 59.2525 39.3129 58.9963C38.025 58.7401 36.7743 58.3608 35.5611 57.8582C34.3478 57.3557 33.1953 56.7396 32.1034 56.01C31.0115 55.2804 30.0013 54.4514 29.0727 53.5228C28.1441 52.5942 27.315 51.584 26.5854 50.4921C25.8558 49.4002 25.2398 48.2476 24.7372 47.0344C24.2347 45.8211 23.8553 44.5705 23.5991 43.2825C23.3429 41.9945 23.2148 40.6939 23.2148 39.3807C23.2148 38.0675 23.3429 36.7669 23.5991 35.479C23.8553 34.191 24.2347 32.9404 24.7372 31.7271C25.2398 30.5139 25.8558 29.3613 26.5854 28.2694C27.315 27.1775 28.1441 26.1673 29.0727 25.2387C30.0013 24.3101 31.0115 23.481 32.1034 22.7514C33.1953 22.0219 34.3478 21.4058 35.5611 20.9033C36.7743 20.4007 38.025 20.0213 39.3129 19.7652C40.6009 19.509 41.9015 19.3809 43.2147 19.3809C44.5279 19.3809 45.8285 19.509 47.1165 19.7652C48.4045 20.0213 49.6551 20.4007 50.8683 20.9033C52.0816 21.4058 53.2342 22.0219 54.3261 22.7514C55.418 23.481 56.4282 24.3101 57.3568 25.2387C58.2854 26.1673 59.1144 27.1775 59.844 28.2694C60.5736 29.3613 61.1897 30.5139 61.6922 31.7271C62.1947 32.9404 62.5741 34.191 62.8303 35.479C63.0865 36.7669 63.2146 38.0675 63.2146 39.3807Z" fill="#FFD500"/>
<path d="M39.2578 16.852L43.2063 10.0117L47.1544 16.852H39.2578Z" fill="#FFD500"/>
<path d="M28.5248 21.8433L28.5234 13.9453L35.3631 17.8948L28.5248 21.8433Z" fill="#FFD500"/>
<path d="M21.7233 31.544L17.7734 24.7051L25.6714 24.7057L21.7233 31.544Z" fill="#FFD500"/>
<path d="M20.6723 43.3277L13.832 39.3802L20.6723 35.4316V43.3277Z" fill="#FFD500"/>
<path d="M25.6714 54.0747L17.7734 54.0766L21.7233 47.2363L25.6714 54.0747Z" fill="#FFD500"/>
<path d="M35.3625 60.8719L28.5234 64.8224L28.5242 56.9238L35.3625 60.8719Z" fill="#FFD500"/>
<path d="M47.154 61.9258L43.2065 68.7667L39.2578 61.9258H47.154Z" fill="#FFD500"/>
<path d="M57.8931 56.9238L57.895 64.8218L51.0547 60.8719L57.8931 56.9238Z" fill="#FFD500"/>
<path d="M64.7019 47.2363L68.6531 54.0754L60.7539 54.0747L64.7019 47.2363Z" fill="#FFD500"/>
<path d="M65.7461 35.4316L72.5871 39.379L65.7461 43.3277V35.4316Z" fill="#FFD500"/>
<path d="M60.7539 24.703L68.6519 24.7012L64.7019 31.5413L60.7539 24.703Z" fill="#FFD500"/>
<path d="M51.0547 17.8901L57.8938 13.9395L57.8931 21.8382L51.0547 17.8901Z" fill="#FFD500"/>
</g>
<path d="M414.731 184.1L328.549 90.271L320.885 106.961L287.5 71.9377L262.323 98.4806L250.627 79.5967L188.952 169.373L150.927 129.025L146.751 143.324L110.461 117.308L68.5522 142.066L65.4852 132.041L0.000259962 175.022C-0.00970324 174.319 0.26637 173.6 0.888406 172.957L112.816 57.8138C114.674 55.9028 118.423 56.0508 120.018 58.0999L185.731 142.454C187.522 144.754 191.88 144.591 193.38 142.169L280.39 1.91715C281.938 -0.580971 286.477 -0.654154 288.155 1.79407L414.731 184.1Z" fill="#025372"/>
</svg>
